<?xml version="1.0" standalone="no"?>
<!DOCTYPE svg PUBLIC "-//W3C//DTD SVG 20010904//EN"
 "http://www.w3.org/TR/2001/REC-SVG-20010904/DTD/svg10.dtd">
<svg version="1.0" xmlns="http://www.w3.org/2000/svg"
 width="300.000000pt" height="300.000000pt" viewBox="0 0 300.000000 300.000000"
 preserveAspectRatio="xMidYMid meet">
<metadata>
Created by potrace 1.10, written by Peter Selinger 2001-2011
</metadata>
<g transform="translate(0.000000,300.000000) scale(0.100000,-0.100000)"
fill="#000000" stroke="none">
<path d="M1 2298 c1 -440 5 -675 10 -628 38 335 186 638 433 886 249 248 546
394 886 433 48 5 -176 9 -627 10 l-703 1 1 -702z"/>
<path d="M1675 2989 c329 -37 647 -193 888 -436 123 -124 197 -228 272 -378
90 -181 134 -329 158 -530 2 -16 5 282 6 663 l1 692 -702 -1 c-468 -1 -676 -5
-623 -10z"/>
<path d="M1300 2895 c-623 -93 -1106 -578 -1195 -1200 -76 -532 165 -1070 615
-1370 339 -226 781 -294 1175 -180 459 134 829 505 960 964 185 650 -115 1344
-713 1645 -263 133 -563 183 -842 141z m822 -822 c16 -14 18 -33 18 -164 0
-121 -3 -150 -16 -163 -14 -14 -93 -16 -723 -16 -536 0 -710 3 -719 12 -15 15
-17 301 -2 329 10 19 29 19 717 19 643 0 708 -1 725 -17z m4 -407 c8 -11 14
-30 14 -43 0 -22 -3 -23 -48 -17 -64 8 -154 -10 -229 -46 -73 -36 -161 -127
-189 -194 l-19 -46 -477 0 c-420 0 -478 2 -492 16 -13 13 -16 43 -16 169 0
148 1 154 23 170 20 14 98 15 720 13 678 -3 699 -4 713 -22z m-4 -107 c117
-25 218 -103 266 -207 24 -50 27 -69 27 -162 0 -96 -3 -110 -29 -163 -36 -71
-108 -140 -184 -175 -49 -23 -70 -27 -152 -27 -82 0 -103 4 -152 27 -76 35
-138 95 -179 170 -33 60 -34 68 -34 168 0 95 3 111 28 162 49 100 145 178 251
204 66 16 93 16 158 3z m-483 -363 c0 -96 21 -169 70 -240 l32 -46 -517 0
c-467 0 -519 2 -536 17 -16 14 -18 34 -18 169 0 147 1 154 22 168 20 14 83 16
485 16 l462 0 0 -84z"/>
<path d="M1424 1990 c-30 -12 -54 -49 -54 -83 0 -34 48 -87 80 -87 96 0 130
130 44 166 -38 16 -41 16 -70 4z m57 -40 c29 -16 26 -67 -6 -82 -21 -9 -28 -8
-45 7 -26 24 -25 50 2 69 27 19 24 19 49 6z"/>
<path d="M1654 1986 c-86 -38 -49 -166 47 -166 11 0 34 13 50 29 36 36 38 79
7 115 -29 32 -64 39 -104 22z m64 -42 c27 -19 28 -45 2 -69 -17 -15 -24 -16
-45 -7 -30 14 -35 65 -7 81 23 14 24 14 50 -5z"/>
<path d="M1894 1990 c-59 -24 -70 -95 -24 -142 27 -26 36 -30 68 -25 46 8 72
38 72 86 0 60 -63 103 -116 81z m74 -78 c6 -56 -71 -70 -84 -15 -5 20 -2 31
15 44 31 26 65 11 69 -29z"/>
<path d="M795 1969 c-16 -25 20 -29 241 -27 196 3 229 5 229 18 0 13 -34 15
-232 18 -161 2 -234 -1 -238 -9z"/>
<path d="M800 1870 c-39 -24 11 -30 236 -28 196 3 229 5 229 18 0 13 -33 15
-225 17 -130 2 -231 -1 -240 -7z"/>
<path d="M1399 1561 c-35 -35 -38 -77 -9 -114 27 -34 63 -41 105 -21 81 38 52
164 -38 164 -18 0 -39 -11 -58 -29z m89 -23 c21 -21 15 -68 -10 -77 -47 -18
-85 33 -52 70 20 22 44 25 62 7z"/>
<path d="M794 1559 c-15 -24 29 -29 246 -26 205 2 225 4 228 20 3 16 -13 17
-232 17 -161 0 -237 -3 -242 -11z"/>
<path d="M795 1459 c-16 -25 20 -29 241 -27 196 3 229 5 229 18 0 13 -34 15
-232 18 -161 2 -234 -1 -238 -9z"/>
<path d="M1989 1421 c-40 -13 -72 -31 -100 -58 l-26 -24 -7 26 c-5 18 -12 25
-24 23 -14 -3 -16 -13 -14 -63 2 -33 8 -64 13 -69 14 -15 134 16 134 34 0 11
-11 15 -37 14 -21 -1 -38 0 -38 2 0 10 51 49 85 65 98 45 207 -2 254 -111 26
-61 57 -70 48 -15 -8 51 -55 115 -108 148 -50 30 -133 43 -180 28z"/>
<path d="M1824 1156 c-9 -24 2 -58 36 -105 79 -108 258 -122 351 -27 l27 27
10 -31 c11 -30 26 -38 37 -20 8 12 -12 121 -24 133 -13 13 -126 -26 -126 -44
0 -9 10 -14 33 -13 43 2 40 -10 -9 -43 -56 -37 -140 -43 -197 -14 -45 23 -89
74 -101 117 -8 32 -28 43 -37 20z"/>
<path d="M1409 1167 c-69 -53 -37 -157 49 -157 51 0 84 34 84 86 0 29 -6 44
-27 61 -29 25 -80 30 -106 10z m79 -39 c7 -7 12 -21 12 -33 0 -47 -62 -63 -81
-21 -22 47 33 90 69 54z"/>
<path d="M795 1159 c-16 -25 20 -29 241 -27 196 3 229 5 229 18 0 13 -34 15
-232 18 -161 2 -234 -1 -238 -9z"/>
<path d="M795 1049 c-16 -25 20 -29 241 -27 196 3 229 5 229 18 0 13 -34 15
-232 18 -161 2 -234 -1 -238 -9z"/>
<path d="M1 703 l-1 -703 693 1 c473 1 669 4 619 11 -184 23 -396 96 -566 194
-403 233 -681 660 -735 1124 -5 48 -9 -176 -10 -627z"/>
<path d="M2990 1345 c0 -56 -36 -226 -70 -326 -42 -126 -136 -306 -218 -415
-251 -335 -621 -545 -1057 -597 -16 -2 282 -5 663 -6 l692 -1 0 690 c0 380 -2
690 -5 690 -3 0 -5 -16 -5 -35z"/>
</g>
</svg>
