<svg className="bg-white dark:bg-black fill-current text-black dark:text-white rounded-full"  xmlns="http://www.w3.org/2000/svg"
  width="50" height="50" viewBox="0 0 300.000000 300.000000"
  preserveAspectRatio="xMidYMid meet">
   <metadata>
   Created by potrace 1.10, written by Peter Selinger 2001-2011
   </metadata>
   <g transform="translate(0.000000,300.000000) scale(0.100000,-0.100000)"
   fill="#000000" stroke="none">
   <path d="M1330 2989 c-163 -19 -355 -76 -500 -149 -276 -139 -532 -395 -670
   -669 -213 -426 -209 -938 11 -1361 270 -519 821 -836 1399 -806 229 11 418 63
   620 167 411 212 696 598 787 1064 12 63 17 141 18 260 0 268 -40 438 -160 680
   -276 557 -884 885 -1505 814z m365 -94 c535 -76 979 -447 1146 -957 304 -930
   -414 -1883 -1391 -1845 -217 8 -389 51 -573 143 -659 328 -957 1100 -688 1782
   237 601 868 969 1506 877z"/>
   <path d="M680 2071 c-15 -28 -13 -314 2 -329 9 -9 183 -12 719 -12 630 0 709
   2 723 16 13 13 16 42 16 163 0 131 -2 150 -18 164 -17 16 -82 17 -725 17 -688
   0 -707 0 -717 -19z m814 -85 c86 -36 52 -166 -44 -166 -32 0 -80 53 -80 87 0
   34 24 71 54 83 29 12 32 12 70 -4z m264 -22 c31 -36 29 -79 -7 -115 -46 -46
   -112 -34 -136 25 -39 94 75 166 143 90z m230 4 c27 -26 30 -86 5 -117 -10 -12
   -35 -24 -55 -28 -32 -5 -41 -1 -68 25 -84 85 30 201 118 120z m-723 -8 c0 -13
   -33 -15 -229 -18 -133 -1 -234 2 -239 7 -27 27 9 31 236 29 198 -3 232 -5 232
   -18z m0 -100 c0 -13 -33 -15 -229 -18 -152 -1 -233 1 -240 8 -24 24 25 30 244
   27 192 -2 225 -4 225 -17z"/>
   <path d="M1432 1944 c-27 -19 -28 -45 -2 -69 17 -15 24 -16 45 -7 32 15 35 66
   6 82 -25 13 -22 13 -49 -6z"/>
   <path d="M1668 1949 c-28 -16 -23 -67 7 -81 21 -9 28 -8 45 7 26 24 25 50 -2
   69 -26 19 -27 19 -50 5z"/>
   <path d="M1899 1941 c-17 -13 -20 -24 -15 -44 13 -55 90 -41 84 15 -4 40 -38
   55 -69 29z"/>
   <path d="M693 1675 c-22 -16 -23 -22 -23 -170 0 -126 3 -156 16 -169 14 -14
   72 -16 492 -16 l477 0 19 46 c28 67 116 158 189 194 75 36 165 54 229 46 45
   -6 48 -5 48 17 0 13 -6 32 -14 43 -14 18 -35 19 -713 22 -622 2 -700 1 -720
   -13z m814 -100 c52 -37 46 -122 -12 -149 -42 -20 -78 -13 -105 21 -59 76 39
   183 117 128z m-239 -22 c-3 -16 -23 -18 -228 -20 -217 -3 -261 2 -246 26 5 8
   81 11 242 11 219 0 235 -1 232 -17z m-3 -103 c0 -13 -33 -15 -229 -18 -133 -1
   -234 2 -239 7 -27 27 9 31 236 29 198 -3 232 -5 232 -18z"/>
   <path d="M1426 1531 c-21 -24 -18 -49 9 -66 31 -20 65 -2 65 33 0 51 -41 69
   -74 33z"/>
   <path d="M1964 1556 c-106 -26 -202 -104 -251 -204 -25 -51 -28 -67 -28 -162
   0 -100 1 -108 34 -168 41 -75 103 -135 179 -170 49 -23 70 -27 152 -27 82 0
   103 4 152 27 76 35 148 104 184 175 26 53 29 67 29 163 0 93 -3 112 -27 162
   -48 104 -149 182 -266 207 -65 13 -92 13 -158 -3z m205 -163 c53 -33 100 -97
   108 -148 9 -55 -22 -46 -48 15 -47 109 -156 156 -254 111 -34 -16 -85 -55 -85
   -65 0 -2 17 -3 38 -2 26 1 37 -3 37 -14 0 -18 -120 -49 -134 -34 -5 5 -11 36
   -13 69 -2 50 0 60 14 63 12 2 19 -5 24 -23 l7 -26 26 24 c78 73 190 85 280 30z
   m-308 -257 c12 -43 56 -94 101 -117 57 -29 141 -23 197 14 49 33 52 45 9 43
   -23 -1 -33 4 -33 13 0 18 113 57 126 44 12 -12 32 -121 24 -133 -11 -18 -26
   -10 -37 20 l-10 31 -27 -27 c-93 -95 -272 -81 -351 27 -34 47 -45 81 -36 105
   9 23 29 12 37 -20z"/>
   <path d="M692 1264 c-21 -14 -22 -21 -22 -168 0 -135 2 -155 18 -169 17 -15
   69 -17 536 -17 l517 0 -32 46 c-49 71 -70 144 -70 240 l0 84 -462 0 c-402 0
   -465 -2 -485 -16z m823 -107 c35 -30 37 -88 4 -123 -48 -51 -149 -15 -149 53
   0 80 86 121 145 70z m-250 -7 c0 -13 -33 -15 -229 -18 -133 -1 -234 2 -239 7
   -27 27 9 31 236 29 198 -3 232 -5 232 -18z m0 -110 c0 -13 -33 -15 -229 -18
   -133 -1 -234 2 -239 7 -27 27 9 31 236 29 198 -3 232 -5 232 -18z"/>
   <path d="M1419 1119 c-16 -30 3 -69 34 -69 29 0 47 17 47 45 0 45 -60 63 -81
   24z"/>
   </g>
   </svg>